<svg width="20" height="20" viewBox="0 0 20 20" fill="none" xmlns="http://www.w3.org/2000/svg">
<path fill-rule="evenodd" clip-rule="evenodd" d="M1.66699 10.0013C1.66699 9.54106 2.04009 9.16797 2.50033 9.16797H17.5003C17.9606 9.16797 18.3337 9.54106 18.3337 10.0013C18.3337 10.4615 17.9606 10.8346 17.5003 10.8346H2.50033C2.04009 10.8346 1.66699 10.4615 1.66699 10.0013Z" fill="black"/>
<path fill-rule="evenodd" clip-rule="evenodd" d="M1.66699 5.0013C1.66699 4.54106 2.04009 4.16797 2.50033 4.16797H17.5003C17.9606 4.16797 18.3337 4.54106 18.3337 5.0013C18.3337 5.46154 17.9606 5.83464 17.5003 5.83464H2.50033C2.04009 5.83464 1.66699 5.46154 1.66699 5.0013Z" fill="black"/>
<path fill-rule="evenodd" clip-rule="evenodd" d="M1.66699 15.0013C1.66699 14.5411 2.04009 14.168 2.50033 14.168H17.5003C17.9606 14.168 18.3337 14.5411 18.3337 15.0013C18.3337 15.4615 17.9606 15.8346 17.5003 15.8346H2.50033C2.04009 15.8346 1.66699 15.4615 1.66699 15.0013Z" fill="black"/>
</svg>
